<?xml version="1.0" encoding="UTF-8" standalone="no"?>
<svg
   xmlns="http://www.w3.org/2000/svg"
   width="24"
   height="24"
   viewBox="0 0 24 24"
   preserveAspectRatio="none"
>
    <path
       d="M 2 0 C 0.89600007 0 0 0.89600007 0 2 L 0 22 C 0 23.104 0.89600007 24 2 24 L 22 24 C 23.104 24 24 23.104 24 22 L 24 2 C 24 0.89600007 23.104 0 22 0 L 2 0 z M 7.9550781 2.8359375 L 11.123047 2.8359375 L 11.123047 7.4179688 L 8.7246094 7.4179688 C 7.9554374 7.4179688 7.7949219 7.7652091 7.7949219 8.640625 L 7.7949219 10.167969 L 10.179688 10.167969 L 10.179688 10.166016 L 11.123047 10.166016 L 11.123047 13.837891 L 10.179688 13.837891 L 10.179688 13.835938 L 7.7949219 13.835938 L 7.7949219 21.164062 L 3.6289062 21.164062 L 3.6289062 13.835938 L 3.6289062 10.167969 L 3.6289062 7.0664062 C 3.6289062 4.2870738 4.9584133 2.8359375 7.9550781 2.8359375 z M 12.890625 2.8417969 L 16.044922 2.8417969 C 19.03037 2.8417969 20.361194 4.2839977 20.371094 7.0429688 L 20.371094 8.5527344 L 20.371094 10.119141 L 20.371094 16.964844 C 20.361208 19.713534 19.038097 21.153303 16.076172 21.164062 L 12.890625 21.164062 L 12.890625 16.582031 L 15.277344 16.582031 C 16.046515 16.582031 16.205078 16.234792 16.205078 15.359375 L 16.205078 13.832031 L 14.273438 13.832031 L 14.273438 13.837891 L 12.890625 13.837891 L 12.890625 10.166016 L 14.273438 10.166016 L 16.205078 10.166016 L 16.205078 10.119141 L 16.205078 8.6484375 C 16.205078 7.7730176 16.046515 7.4257812 15.277344 7.4257812 L 12.890625 7.4257812 L 12.890625 2.8417969 z "
       id="path9150" />
</svg>
